# xmcd
#
# Track frame offsets:
#	150
#	14155
#	27501
#	40233
#	55056
#	66560
#	78403
#	89415
#	108237
#	115423
#	126978
#	148321
#	160375
#	171712
#	180579
#	197364
#	212317
#	221871
#	231431
#	250549
#
# Disc length: 3559 seconds
# Revision: 1
# Processed by: cddbd v1.5.2PL0 Copyright (c) Steve Scherf et al.
# Submitted via: dBpowerAMP V12.0
#
DISCID=300de514
DTITLE=Foghorn Stringband - Rattlesnake Tidal Wave
DYEAR=2003
DGENRE=Folk
TTITLE0=Lost Girl
TTITLE1=Lost Indian
TTITLE2=Drunkard's Dream
TTITLE3=Policeman
TTITLE4=Grey Eagle
TTITLE5=Fine Times at Our House
TTITLE6=Rocky Pallet
TTITLE7=Roving Gambler Jaybird in the Ashbrook
TTITLE8=Jim Short's Tune
TTITLE9=Lacy Brown
TTITLE10=Willie Moore
TTITLE11=New Broom
TTITLE12=Cherry River Rag
TTITLE13=Three Forks of Cumberland
TTITLE14=Courting Days Waltz
TTITLE15=Let Me Fall
TTITLE16=Sherburn's Breakdown
TTITLE17=Pretty Little Dog
TTITLE18=Farther Along
TTITLE19=Huckleberry Blues
EXTD=
EXTT0=
EXTT1=
EXTT2=
EXTT3=
EXTT4=
EXTT5=
EXTT6=
EXTT7=
EXTT8=
EXTT9=
EXTT10=
EXTT11=
EXTT12=
EXTT13=
EXTT14=
EXTT15=
EXTT16=
EXTT17=
EXTT18=
EXTT19=
PLAYORDER=
